<?xml version="1.0" encoding="utf-8"?>
<!-- Generator: Adobe Illustrator 19.0.0, SVG Export Plug-In . SVG Version: 6.00 Build 0)  -->
<svg version="1.1" id="Layer_1" xmlns="http://www.w3.org/2000/svg" xmlns:xlink="http://www.w3.org/1999/xlink" x="0px" y="0px"
	 viewBox="0 0 205 205" style="enable-background:new 0 0 205 205;" xml:space="preserve">
<style type="text/css">
	.st0{fill:#E8EAEA;}
	.st1{fill:#8ED5E6;stroke:#303030;stroke-width:4;stroke-linejoin:round;stroke-miterlimit:10;}
	.st2{fill:#BD90C2;stroke:#303030;stroke-width:4;stroke-linejoin:round;stroke-miterlimit:10;}
	.st3{fill:#F8BD7B;stroke:#303030;stroke-width:4;stroke-linecap:round;stroke-linejoin:round;stroke-miterlimit:10;}
	.st4{fill:#6DC49D;stroke:#303030;stroke-width:4;stroke-linecap:round;stroke-linejoin:round;stroke-miterlimit:10;}
	.st5{fill:#79A1D3;stroke:#303030;stroke-width:4;stroke-linejoin:round;stroke-miterlimit:10;}
</style>
<circle id="XMLID_41_" class="st0" cx="102.5" cy="102.5" r="100"/>
<path id="XMLID_34_" class="st1" d="M121.5,132.9v-12.4h-11.7c0,1,0,0,0,0.2c0,3.5-2.8,6.1-6.3,6.1c-3.5,0-6.3-2.6-6.3-6
	c0-0.2,0,0.7,0-0.3H83.5v12c4,0.3,5.7,3,5.7,6.2s-1.7,6-5.7,6.2v13.6h38v-13.2c4-0.4,5.5-3,5.5-6.2
	C127,135.9,125.5,133.3,121.5,132.9z"/>
<path id="XMLID_33_" class="st2" d="M77.3,63c0-3.4,3.2-6.2,6.2-6.3V45.5h-37v37h13.4c0,0,0-0.4,0-0.5c0-3.5,2.8-6.4,6.3-6.4
	c3.5,0,6.3,3,6.3,6.4c0,0.1,0,0.4,0,0.4h11.1V69.3C80.5,69.2,77.3,66.4,77.3,63z"/>
<path id="XMLID_32_" class="st3" d="M84.3,132.5c0,0-0.8,0-0.8,0v-12H72.4c0-1,0-0.6,0-0.7c0-3.5-2.8-6.5-6.3-6.5
	c-3.5,0-6.3,3.2-6.3,6.6c0,0.1,0-0.4,0,0.6H46.5v38h37V145c0,0,0.7,0,0.8,0c3.5,0,6.3-2.8,6.3-6.3C90.5,135.3,87.7,132.5,84.3,132.5
	z"/>
<path id="XMLID_31_" class="st4" d="M120.5,56.9V45.5h-37v11.3c-3,0.4-5.5,3-5.5,6.2c0,3.2,2.5,5.8,5.5,6.2v13.3h13.3
	c0,0,0-0.4,0-0.6c0-3.5,2.8-6.3,6.3-6.3c3.5,0,6.3,2.9,6.3,6.3c0,0.2,0,0.6,0,0.6h11.2V69.2c-3-0.4-5.5-3-5.5-6.2
	C115,59.8,117.5,57.2,120.5,56.9z"/>
<path id="XMLID_30_" class="st3" d="M158.5,45.5h-38v11.3c-3,0.4-5.6,3-5.6,6.2c0,3.2,2.6,5.8,5.6,6.2v13.3h13.6c0,0,0-0.4,0-0.6
	c0-3.5,2.8-6.3,6.3-6.3c3.5,0,6.3,2.9,6.3,6.3c0,0.2,0,0.6,0,0.6h11.8V45.5z"/>
<path id="XMLID_29_" class="st5" d="M120.5,82.5h-11.2c0,0,0-0.4,0-0.6c0-3.5-2.8-6.3-6.2-6.3c-3.5,0-6.2,2.9-6.2,6.3
	c0,0.2,0.1,0.6,0.1,0.6H83.5v38h14c0,1-0.2,0-0.2,0.2c0,3.5,2.8,6.1,6.3,6.1c3.5,0,6.3-2.6,6.3-6c0-0.2,0,0.7,0-0.3h10.7V82.5z"/>
<path id="XMLID_28_" class="st1" d="M84.3,94.9c0,0-0.8,0-0.8,0V82.5H72.4c0,0,0-0.4,0-0.5c0-3.5-2.8-6.4-6.3-6.4
	c-3.5,0-6.3,3-6.3,6.4c0,0.1,0,0.4,0,0.4H46.5v38H60c0,0-0.1-0.7-0.1-0.8c0-3.5,2.8-6.4,6.2-6.4c3.5,0,6.2,3,6.2,6.5
	c0,0.2,0,0.8,0,0.8h11.1v-13.1c0,0,0.7,0,0.8,0c3.5,0,6.3-2.8,6.3-6.3C90.5,97.7,87.7,94.9,84.3,94.9z"/>
<path id="XMLID_27_" class="st4" d="M120.5,145.3v13.2h38v-38h-38v12.4c4,0.4,5.5,3,5.5,6.2C126,142.3,124.5,144.9,120.5,145.3z"/>
<path id="XMLID_36_" class="st2" d="M158.5,82.5h-12c0,0,0-0.4,0-0.5c0-3.5-2.8-6.5-6.3-6.5c-3.5,0-6.3,3-6.3,6.5c0,0.1,0,0.5,0,0.5
	h-13.5v12.2c0,0,0.5,0,0.4,0c-3.5,0-6,2.8-6,6.3c0,3.5,2.4,6.3,5.9,6.3c0,0-0.3,0-0.3,0v13.3h13.4c0.2,4,2.9,6.1,6.2,6.1
	c3.4,0,6.1-2.1,6.2-6.1h12.1V82.5z"/>
</svg>
